<?xml version="1.0" encoding="UTF-8"?>
<svg xmlns="http://www.w3.org/2000/svg" viewBox="0 0 128 128" width="128" height="128">
  <defs>
    <linearGradient id="bg" x1="0" y1="0" x2="1" y2="1">
      <stop offset="0" stop-color="#5B2EE5"/>
      <stop offset="0.55" stop-color="#7A3BE0"/>
      <stop offset="1" stop-color="#17B9D4"/>
    </linearGradient>
    <linearGradient id="shine" x1="0" y1="0" x2="0" y2="1">
      <stop offset="0" stop-color="#ffffff" stop-opacity="0.18"/>
      <stop offset="1" stop-color="#ffffff" stop-opacity="0"/>
    </linearGradient>
  </defs>
  <!-- Sprechblase -->
  <path d="M 36 12
           h 56 a 24 24 0 0 1 24 24 v 48 a 24 24 0 0 1 -24 24 h -44
           l -22 16 c -3 2.2 -7 -0.4 -6.3 -4l4 -14
           a 24 24 0 0 1 -11.7 -20.5 v -49.5 a 24 24 0 0 1 24 -24 z"
        fill="url(#bg)"/>
  <path d="M 36 12 h 56 a 24 24 0 0 1 24 24 v 22 h -104 v -22 a 24 24 0 0 1 24 -24 z"
        fill="url(#shine)"/>
  <!-- Stimme: Wellenform-Balken -->
  <g fill="#ffffff">
    <rect x="32"  y="52" width="9" height="24" rx="4.5"/>
    <rect x="48"  y="40" width="9" height="48" rx="4.5"/>
    <rect x="64"  y="30" width="9" height="68" rx="4.5"/>
    <rect x="80"  y="44" width="9" height="40" rx="4.5"/>
    <rect x="96"  y="56" width="9" height="16" rx="4.5"/>
  </g>
</svg>
